<svg width="18" height="18" viewBox="0 0 18 18" fill="none" xmlns="http://www.w3.org/2000/svg">
<path d="M14.1981 4.68256C13.2421 4.25092 12.2169 3.9329 11.1449 3.75076C11.1254 3.74725 11.1059 3.75603 11.0959 3.7736C10.964 4.00435 10.818 4.30539 10.7157 4.54199C9.56275 4.37216 8.41574 4.37216 7.28645 4.54199C7.18415 4.30013 7.0328 4.00435 6.90036 3.7736C6.8903 3.75662 6.8708 3.74784 6.85128 3.75076C5.77994 3.93232 4.75473 4.25034 3.79808 4.68256C3.7898 4.68608 3.7827 4.69194 3.77799 4.69955C1.83337 7.5582 1.30066 10.3466 1.56199 13.1004C1.56317 13.1139 1.57086 13.1268 1.5815 13.1349C2.86451 14.062 4.10732 14.6249 5.32705 14.9979C5.34657 15.0038 5.36725 14.9968 5.37968 14.981C5.6682 14.5933 5.9254 14.1845 6.14592 13.7546C6.15894 13.7294 6.14651 13.6995 6.11992 13.6896C5.71196 13.5373 5.3235 13.3516 4.94983 13.1408C4.92027 13.1238 4.91791 13.0822 4.9451 13.0623C5.02373 13.0043 5.10239 12.944 5.17747 12.8831C5.19106 12.872 5.20999 12.8696 5.22596 12.8767C7.6808 13.9795 10.3385 13.9795 12.7643 12.8767C12.7803 12.869 12.7992 12.8714 12.8134 12.8825C12.8885 12.9434 12.9672 13.0043 13.0464 13.0623C13.0736 13.0822 13.0718 13.1238 13.0422 13.1408C12.6686 13.3557 12.2801 13.5373 11.8716 13.689C11.845 13.6989 11.8331 13.7294 11.8462 13.7546C12.0714 14.1839 12.3286 14.5927 12.6118 14.9804C12.6236 14.9968 12.6449 15.0038 12.6644 14.9979C13.8901 14.6249 15.1329 14.062 16.4159 13.1349C16.4271 13.1268 16.4342 13.1144 16.4354 13.101C16.7482 9.91727 15.9116 7.15175 14.2176 4.70013C14.2135 4.69194 14.2064 4.68608 14.1981 4.68256ZM6.51251 11.4236C5.77344 11.4236 5.16446 10.756 5.16446 9.93602C5.16446 9.11607 5.76163 8.44842 6.51251 8.44842C7.2693 8.44842 7.87238 9.12194 7.86055 9.93602C7.86055 10.756 7.26338 11.4236 6.51251 11.4236ZM11.4967 11.4236C10.7577 11.4236 10.1487 10.756 10.1487 9.93602C10.1487 9.11607 10.7458 8.44842 11.4967 8.44842C12.2535 8.44842 12.8566 9.12194 12.8448 9.93602C12.8448 10.756 12.2535 11.4236 11.4967 11.4236Z" fill="#787E87"/>
</svg>
