<svg width="20" height="20" viewBox="0 0 20 20" fill="none" xmlns="http://www.w3.org/2000/svg">
<path d="M11.6664 10.2583C11.6481 10.6083 11.5689 10.9525 11.4331 11.275C11.322 11.5208 11.1389 11.7271 10.9081 11.8667C10.7531 11.95 10.5831 12.0042 10.4081 12.025C10.1549 12.0745 9.89457 12.0745 9.64141 12.025C9.47556 11.9802 9.31993 11.9038 9.18307 11.8C9.10045 11.727 9.03312 11.6384 8.98499 11.5392C8.93686 11.4401 8.90889 11.3323 8.90269 11.2223C8.89649 11.1122 8.91218 11.002 8.94887 10.8981C8.98555 10.7941 9.0425 10.6985 9.11641 10.6167C9.27178 10.4643 9.46424 10.3552 9.67474 10.3C9.90141 10.2292 10.1372 10.1958 10.3747 10.2C10.5914 10.1872 10.8081 10.1872 11.0247 10.2C11.2264 10.2156 11.4264 10.2433 11.6247 10.2833L11.6664 10.2583Z" fill="#787E87"/>
<path d="M14.167 1.66675H5.83366C4.72859 1.66675 3.66878 2.10573 2.88738 2.88714C2.10598 3.66854 1.66699 4.72835 1.66699 5.83341V14.1667C1.66699 15.2718 2.10598 16.3316 2.88738 17.113C3.66878 17.8944 4.72859 18.3334 5.83366 18.3334H14.167C15.2721 18.3334 16.3319 17.8944 17.1133 17.113C17.8947 16.3316 18.3337 15.2718 18.3337 14.1667V5.83341C18.3337 4.72835 17.8947 3.66854 17.1133 2.88714C16.3319 2.10573 15.2721 1.66675 14.167 1.66675ZM6.26699 12.1084C6.39834 12.5469 6.60106 12.9608 6.86699 13.3334C7.24662 13.8578 7.77073 14.2603 8.37533 14.4917C8.74783 14.6301 9.13783 14.7201 9.53366 14.7584C9.92255 14.7962 10.3114 14.7962 10.7003 14.7584C11.1532 14.723 11.5962 14.6073 12.0087 14.4167C12.4747 14.1891 12.8738 13.8446 13.167 13.4167C13.343 13.1652 13.4593 12.8768 13.5069 12.5736C13.5546 12.2703 13.5324 11.9601 13.442 11.6667C13.332 11.2958 13.0963 10.9746 12.7753 10.7584L12.6087 10.6417C12.6087 10.7167 12.6087 10.7834 12.567 10.8501C12.5087 11.2251 12.3837 11.5851 12.2003 11.9167C12.038 12.2138 11.809 12.4692 11.5314 12.663C11.2538 12.8567 10.9351 12.9835 10.6003 13.0334C10.1598 13.1197 9.70493 13.0968 9.27533 12.9667C8.91894 12.8684 8.59436 12.6789 8.33366 12.4167C8.04787 12.126 7.86874 11.7471 7.82533 11.3417C7.78358 10.9987 7.83967 10.6508 7.98711 10.3382C8.13456 10.0256 8.36736 9.76107 8.65866 9.57508C8.96172 9.3742 9.30161 9.23541 9.65866 9.16675C10.012 9.10841 10.3675 9.08341 10.7253 9.09175C11.0044 9.09927 11.2827 9.12432 11.5587 9.16675H11.6087C11.5718 8.93871 11.4956 8.71879 11.3837 8.51675C11.303 8.3819 11.1956 8.26501 11.0681 8.17328C10.9405 8.08155 10.7955 8.01693 10.642 7.98341C10.2754 7.87088 9.88355 7.87088 9.51699 7.98341C9.25282 8.07684 9.02324 8.2483 8.85866 8.47508V8.53341L8.02533 7.95841V7.90008C8.37257 7.39673 8.90116 7.04732 9.50033 6.92508C10.0113 6.81365 10.5425 6.83662 11.042 6.99175C11.322 7.0775 11.5814 7.22022 11.8036 7.41095C12.0259 7.60168 12.2064 7.8363 12.3337 8.10008C12.4803 8.39925 12.5795 8.72008 12.6253 9.05008C12.6486 9.19346 12.6626 9.33822 12.667 9.48341L12.917 9.60008C13.3078 9.80762 13.6534 10.0909 13.9337 10.4334C14.222 10.7892 14.4112 11.2142 14.4837 11.6667C14.5428 11.9401 14.5628 12.2209 14.542 12.5001C14.4994 13.1939 14.2267 13.8537 13.767 14.3751C13.186 15.062 12.3955 15.5392 11.517 15.7334C11.1303 15.8154 10.7371 15.8628 10.342 15.8751C9.98312 15.8902 9.62362 15.8762 9.26699 15.8334C8.68847 15.7659 8.12522 15.6025 7.60033 15.3501C6.92381 15.0073 6.34911 14.4929 5.93366 13.8584C5.62659 13.3794 5.39342 12.8569 5.24199 12.3084C5.13033 11.8951 5.04977 11.4756 5.00033 11.0501V10.0001C5.00033 9.65008 5.00033 9.30008 5.05866 8.95008C5.09297 8.55416 5.15704 8.16138 5.25033 7.77508C5.3775 7.28841 5.57395 6.82253 5.83366 6.39175C6.35481 5.46352 7.20533 4.76467 8.21699 4.43341C8.58011 4.30999 8.95395 4.22072 9.33366 4.16675C9.8099 4.11251 10.2908 4.11251 10.767 4.16675C11.3424 4.21996 11.9052 4.36631 12.4337 4.60008C13.1959 4.93629 13.8443 5.48626 14.3003 6.18341C14.6207 6.68632 14.8571 7.23796 15.0003 7.81675L14.017 8.08341V8.01675C13.906 7.62215 13.7435 7.24389 13.5337 6.89175C13.1064 6.19759 12.4439 5.68005 11.667 5.43341C11.258 5.29463 10.8317 5.2133 10.4003 5.19175C10.0814 5.16546 9.7609 5.16546 9.44199 5.19175C8.94977 5.23995 8.47007 5.37539 8.02533 5.59175C7.45053 5.89192 6.97779 6.35596 6.66699 6.92508C6.45222 7.31512 6.29238 7.73296 6.19199 8.16675C6.10444 8.51971 6.04591 8.87924 6.01699 9.24175C5.99527 9.58863 5.99527 9.93653 6.01699 10.2834C6.02147 10.9 6.1055 11.5134 6.26699 12.1084Z" fill="#787E87"/>
<path d="M11.6664 10.2583C11.6481 10.6083 11.5689 10.9525 11.4331 11.275C11.322 11.5208 11.1389 11.7271 10.9081 11.8667C10.7531 11.95 10.5831 12.0042 10.4081 12.025C10.1549 12.0745 9.89457 12.0745 9.64141 12.025C9.47556 11.9802 9.31993 11.9038 9.18307 11.8C9.10045 11.727 9.03312 11.6384 8.98499 11.5392C8.93686 11.4401 8.90889 11.3323 8.90269 11.2223C8.89649 11.1122 8.91218 11.002 8.94887 10.8981C8.98555 10.7941 9.0425 10.6985 9.11641 10.6167C9.27178 10.4643 9.46424 10.3552 9.67474 10.3C9.90141 10.2292 10.1372 10.1958 10.3747 10.2C10.5914 10.1872 10.8081 10.1872 11.0247 10.2C11.2264 10.2156 11.4264 10.2433 11.6247 10.2833L11.6664 10.2583Z" fill="#787E87"/>
</svg>
