<svg width="20" height="20" viewBox="0 0 20 20" fill="none" xmlns="http://www.w3.org/2000/svg">
<path fill-rule="evenodd" clip-rule="evenodd" d="M13.3333 18.125C14.6042 18.125 15.8229 17.6202 16.7216 16.7216C17.6202 15.8229 18.125 14.6042 18.125 13.3333V6.66667C18.125 5.39584 17.6202 4.17706 16.7216 3.27845C15.8229 2.37983 14.6042 1.875 13.3333 1.875H6.66667C5.39584 1.875 4.17706 2.37983 3.27845 3.27845C2.37983 4.17706 1.875 5.39584 1.875 6.66667V13.3333C1.875 14.6042 2.37983 15.8229 3.27845 16.7216C4.17706 17.6202 5.39584 18.125 6.66667 18.125H13.3333ZM11.4258 4.8025C11.3787 4.66203 11.2831 4.54289 11.1563 4.46633C11.0294 4.38976 10.8795 4.36075 10.7333 4.38448C10.587 4.4082 10.4539 4.48312 10.3578 4.59586C10.2616 4.7086 10.2087 4.85183 10.2083 5V12.5C10.2083 12.8708 10.0984 13.2334 9.89234 13.5417C9.68631 13.85 9.39348 14.0904 9.05086 14.2323C8.70825 14.3742 8.33125 14.4113 7.96754 14.339C7.60382 14.2666 7.26973 14.088 7.00751 13.8258C6.74528 13.5636 6.56671 13.2295 6.49436 12.8658C6.42201 12.5021 6.45914 12.1251 6.60106 11.7825C6.74297 11.4399 6.9833 11.147 7.29164 10.941C7.59998 10.735 7.96249 10.625 8.33333 10.625C8.49909 10.625 8.65806 10.5592 8.77527 10.4419C8.89248 10.3247 8.95833 10.1658 8.95833 10C8.95833 9.83424 8.89248 9.67527 8.77527 9.55806C8.65806 9.44085 8.49909 9.375 8.33333 9.375C7.71527 9.375 7.11108 9.55828 6.59718 9.90166C6.08327 10.245 5.68273 10.7331 5.44621 11.3041C5.20969 11.8751 5.1478 12.5035 5.26838 13.1097C5.38896 13.7158 5.68659 14.2727 6.12362 14.7097C6.56066 15.1467 7.11749 15.4444 7.72368 15.565C8.32987 15.6855 8.9582 15.6236 9.52922 15.3871C10.1002 15.1506 10.5883 14.7501 10.9317 14.2362C11.2751 13.7223 11.4583 13.1181 11.4583 12.5V7.04833C12.0975 7.64167 12.9975 8.125 14.1667 8.125C14.3324 8.125 14.4914 8.05915 14.6086 7.94194C14.7258 7.82473 14.7917 7.66576 14.7917 7.5C14.7917 7.33424 14.7258 7.17527 14.6086 7.05806C14.4914 6.94085 14.3324 6.875 14.1667 6.875C13.3567 6.875 12.7408 6.54167 12.2842 6.10917C11.8175 5.66583 11.5358 5.13167 11.4258 4.8025Z" fill="#787E87"/>
</svg>
