<svg width="16" height="16" viewBox="0 0 16 16" fill="none" xmlns="http://www.w3.org/2000/svg">
<path d="M3.33317 10C2.7065 10 2.1265 10.22 1.6665 10.5867C1.05317 11.0733 0.666504 11.8267 0.666504 12.6667C0.666504 14.14 1.85984 15.3333 3.33317 15.3333C4.0065 15.3333 4.61984 15.08 5.09317 14.6667C5.6465 14.18 5.99984 13.4667 5.99984 12.6667C5.99984 11.1933 4.8065 10 3.33317 10ZM3.99984 12.8333C3.99984 13.0067 3.9065 13.1733 3.75984 13.26L2.9265 13.76C2.8465 13.8067 2.75984 13.8333 2.6665 13.8333C2.49984 13.8333 2.33317 13.7467 2.23984 13.5933C2.09984 13.3533 2.17317 13.0467 2.41317 12.9067L3.0065 12.5533V11.8333C3.0065 11.56 3.23317 11.3333 3.5065 11.3333C3.77983 11.3333 4.0065 11.56 4.0065 11.8333V12.8333H3.99984Z" fill="#787E87"/>
<path opacity="0.4" d="M12.9865 8.63333H14.3332V7.67333C14.3332 6.29333 13.2065 5.16666 11.8265 5.16666H4.17317C2.79317 5.16666 1.6665 6.29333 1.6665 7.67333V10.5867C2.1265 10.22 2.7065 9.99999 3.33317 9.99999C4.8065 9.99999 5.99984 11.1933 5.99984 12.6667C5.99984 13.1667 5.85984 13.64 5.61317 14.04C5.47317 14.28 5.29317 14.4933 5.08651 14.6667H11.8265C13.2065 14.6667 14.3332 13.54 14.3332 12.16V11.3666H13.0665C12.3465 11.3666 11.6865 10.84 11.6265 10.12C11.5865 9.69999 11.7465 9.30665 12.0265 9.03332C12.2732 8.77998 12.6132 8.63333 12.9865 8.63333Z" fill="#787E87"/>
<path d="M9.89984 2.63332V5.16665H4.17317C2.79317 5.16665 1.6665 6.29332 1.6665 7.67332V5.22667C1.6665 4.43333 2.15317 3.72664 2.89317 3.44664L8.1865 1.44664C9.01317 1.13997 9.89984 1.74666 9.89984 2.63332Z" fill="#787E87"/>
<path d="M15.04 9.3133V10.6867C15.04 11.0533 14.7467 11.3533 14.3734 11.3666H13.0667C12.3467 11.3666 11.6867 10.84 11.6267 10.12C11.5867 9.69998 11.7467 9.30665 12.0267 9.03331C12.2733 8.77998 12.6134 8.63333 12.9867 8.63333H14.3734C14.7467 8.64666 15.04 8.94664 15.04 9.3133Z" fill="#787E87"/>
<path d="M9.33317 8.5H4.6665C4.39317 8.5 4.1665 8.27333 4.1665 8C4.1665 7.72667 4.39317 7.5 4.6665 7.5H9.33317C9.6065 7.5 9.83317 7.72667 9.83317 8C9.83317 8.27333 9.6065 8.5 9.33317 8.5Z" fill="#787E87"/>
</svg>
