<svg width="16" height="16" viewBox="0 0 16 16" fill="none" xmlns="http://www.w3.org/2000/svg">
<path opacity="0.4" fill-rule="evenodd" clip-rule="evenodd" d="M14.6667 9.5C14.9428 9.5 15.1667 9.72386 15.1667 10C15.1667 12.8561 12.8561 15.1667 10 15.1667C9.81986 15.1667 9.65365 15.0698 9.5649 14.913C9.47615 14.7563 9.47857 14.5639 9.57125 14.4094L10.2712 13.2428C10.4133 13.006 10.7204 12.9292 10.9572 13.0713C11.194 13.2133 11.2708 13.5205 11.1287 13.7572L10.9479 14.0587C12.7939 13.6304 14.1667 11.9777 14.1667 10C14.1667 9.72386 14.3905 9.5 14.6667 9.5Z" fill="#787E87"/>
<path opacity="0.4" fill-rule="evenodd" clip-rule="evenodd" d="M5.0523 1.9413C3.20623 2.36959 1.8335 4.02229 1.8335 6.00001C1.8335 6.27615 1.60964 6.50001 1.3335 6.50001C1.05735 6.50001 0.833496 6.27615 0.833496 6.00001C0.833496 3.14387 3.14402 0.833344 6.00016 0.833344C6.1803 0.833344 6.34651 0.930239 6.43526 1.08699C6.52401 1.24375 6.52159 1.43612 6.42891 1.59059L5.72892 2.75726C5.58685 2.99405 5.27972 3.07083 5.04292 2.92876C4.80613 2.78669 4.72935 2.47956 4.87142 2.24276L5.0523 1.9413Z" fill="#787E87"/>
<path opacity="0.4" d="M8.00016 10.4667V10.8733H1.3335V10.4667C1.3335 9.29333 1.62683 9 2.8135 9H6.52016C7.70683 9 8.00016 9.29333 8.00016 10.4667Z" fill="#787E87"/>
<path d="M1.3335 10.8733V11.8733V13.2C1.3335 14.3733 1.62683 14.6667 2.8135 14.6667H6.52016C7.70683 14.6667 8.00016 14.3733 8.00016 13.2V11.8733V10.8733H1.3335Z" fill="#787E87"/>
<path opacity="0.4" d="M14.6667 2.80001V3.20668H8V2.80001C8 1.62668 8.29333 1.33334 9.48 1.33334H13.1867C14.3733 1.33334 14.6667 1.62668 14.6667 2.80001Z" fill="#787E87"/>
<path d="M8 3.20667V4.20666V5.53333C8 6.70666 8.29333 7 9.48 7H13.1867C14.3733 7 14.6667 6.70666 14.6667 5.53333V4.20666V3.20667H8Z" fill="#787E87"/>
</svg>
