<svg width="56" height="56" viewBox="0 0 56 56" fill="none" xmlns="http://www.w3.org/2000/svg">
<path d="M36.75 8.87688V7C36.75 5.60761 36.1969 4.27226 35.2123 3.28769C34.2277 2.30312 32.8924 1.75 31.5 1.75H24.5C23.1076 1.75 21.7723 2.30312 20.7877 3.28769C19.8031 4.27226 19.25 5.60761 19.25 7V8.87688C16.3364 9.30154 13.6727 10.7598 11.7451 12.9854C9.81742 15.211 8.75438 18.0556 8.75 21V47.25C8.75 48.1783 9.11875 49.0685 9.77513 49.7249C10.4315 50.3813 11.3217 50.75 12.25 50.75H43.75C44.6783 50.75 45.5685 50.3813 46.2249 49.7249C46.8813 49.0685 47.25 48.1783 47.25 47.25V21C47.2456 18.0556 46.1826 15.211 44.2549 12.9854C42.3273 10.7598 39.6636 9.30154 36.75 8.87688ZM22.75 7C22.75 6.53587 22.9344 6.09075 23.2626 5.76256C23.5908 5.43437 24.0359 5.25 24.5 5.25H31.5C31.9641 5.25 32.4092 5.43437 32.7374 5.76256C33.0656 6.09075 33.25 6.53587 33.25 7V8.75H22.75V7ZM24.5 15.75H31.5C31.9641 15.75 32.4092 15.9344 32.7374 16.2626C33.0656 16.5908 33.25 17.0359 33.25 17.5C33.25 17.9641 33.0656 18.4092 32.7374 18.7374C32.4092 19.0656 31.9641 19.25 31.5 19.25H24.5C24.0359 19.25 23.5908 19.0656 23.2626 18.7374C22.9344 18.4092 22.75 17.9641 22.75 17.5C22.75 17.0359 22.9344 16.5908 23.2626 16.2626C23.5908 15.9344 24.0359 15.75 24.5 15.75ZM38.5 47.25H17.5V38.5H29.75V40.25C29.75 40.7141 29.9344 41.1592 30.2626 41.4874C30.5908 41.8156 31.0359 42 31.5 42C31.9641 42 32.4092 41.8156 32.7374 41.4874C33.0656 41.1592 33.25 40.7141 33.25 40.25V38.5H38.5V47.25ZM38.5 35H17.5V33.25C17.5 32.3217 17.8687 31.4315 18.5251 30.7751C19.1815 30.1187 20.0717 29.75 21 29.75H35C35.9283 29.75 36.8185 30.1187 37.4749 30.7751C38.1313 31.4315 38.5 32.3217 38.5 33.25V35Z" fill="#3A35FB"/>
</svg>
