<svg width="10" height="10" viewBox="0 0 10 10" fill="none" xmlns="http://www.w3.org/2000/svg">
<path d="M9.78125 1.28125C10.0729 0.927083 10.0729 0.572917 9.78125 0.21875C9.42708 -0.072917 9.07292 -0.072917 8.71875 0.21875L5 3.9375L1.28125 0.21875C0.927083 -0.072917 0.572917 -0.072917 0.21875 0.21875C-0.0729167 0.572917 -0.0729167 0.927083 0.21875 1.28125L3.9375 5L0.21875 8.71875C-0.0729167 9.07292 -0.0729167 9.42708 0.21875 9.78125C0.572917 10.0729 0.927083 10.0729 1.28125 9.78125L5 6.0625L8.71875 9.78125C9.07292 10.0729 9.42708 10.0729 9.78125 9.78125C10.0729 9.42708 10.0729 9.07292 9.78125 8.71875L6.0625 5L9.78125 1.28125Z" fill="#DEDEDE"/>
</svg>
