<svg width="18" height="18" viewBox="0 0 18 18" fill="none" xmlns="http://www.w3.org/2000/svg">
<path d="M16.8189 6.84072C16.7507 6.63075 16.6224 6.44547 16.4497 6.30794C16.277 6.17041 16.0677 6.08672 15.8478 6.06728L11.672 5.70728L10.0351 1.81478C9.94989 1.61053 9.80614 1.43607 9.62197 1.31335C9.43779 1.19063 9.22143 1.12515 9.00011 1.12515C8.7788 1.12515 8.56244 1.19063 8.37826 1.31335C8.19409 1.43607 8.05034 1.61053 7.96511 1.81478L6.33316 5.70728L2.15238 6.06939C1.93162 6.08794 1.72126 6.17125 1.54766 6.30888C1.37407 6.44651 1.24497 6.63233 1.17656 6.84304C1.10815 7.05375 1.10348 7.27996 1.16312 7.49332C1.22276 7.70667 1.34407 7.89767 1.51183 8.04236L4.68363 10.8141L3.733 14.9302C3.68274 15.1456 3.69708 15.371 3.77424 15.5783C3.8514 15.7856 3.98795 15.9655 4.16683 16.0956C4.3457 16.2257 4.55896 16.3002 4.77994 16.3098C5.00092 16.3193 5.21981 16.2636 5.40925 16.1494L8.99519 13.9697L12.5889 16.1494C12.7783 16.2636 12.9972 16.3193 13.2182 16.3098C13.4392 16.3002 13.6524 16.2257 13.8313 16.0956C14.0102 15.9655 14.1467 15.7856 14.2239 15.5783C14.301 15.371 14.3154 15.1456 14.2651 14.9302L13.3152 10.8099L16.4863 8.04236C16.654 7.89717 16.7751 7.70563 16.8343 7.49182C16.8934 7.27802 16.8881 7.05149 16.8189 6.84072ZM15.7487 7.19228L12.5776 9.95978C12.4233 10.094 12.3085 10.2678 12.2455 10.4625C12.1826 10.6571 12.1739 10.8652 12.2204 11.0644L13.1732 15.1875L9.5823 13.0078C9.40711 12.9011 9.20594 12.8447 9.00082 12.8447C8.79569 12.8447 8.59453 12.9011 8.41933 13.0078L4.83339 15.1875L5.7798 11.0672C5.82631 10.868 5.81763 10.6599 5.7547 10.4653C5.69176 10.2706 5.57695 10.0968 5.42261 9.96259L2.25011 7.1965C2.24986 7.1944 2.24986 7.19227 2.25011 7.19017L6.42949 6.82876C6.63354 6.81078 6.8288 6.73742 6.99422 6.61661C7.15964 6.4958 7.28894 6.33212 7.36816 6.14322L9.00011 2.25564L10.6314 6.14322C10.7106 6.33212 10.8399 6.4958 11.0053 6.61661C11.1707 6.73742 11.366 6.81078 11.57 6.82876L15.7501 7.19017C15.7501 7.19017 15.7501 7.19439 15.7501 7.19509L15.7487 7.19228Z" fill="#787E87"/>
</svg>
