<svg width="19" height="18" viewBox="0 0 19 18" fill="none" xmlns="http://www.w3.org/2000/svg">
<path d="M16.9883 8.04233L13.8172 10.8098L14.7671 14.9301C14.8174 15.1455 14.803 15.371 14.7259 15.5783C14.6487 15.7856 14.5122 15.9655 14.3333 16.0956C14.1544 16.2257 13.9411 16.3002 13.7202 16.3098C13.4992 16.3193 13.2803 16.2635 13.0909 16.1494L9.49718 13.9697L5.91124 16.1494C5.7218 16.2635 5.5029 16.3193 5.28193 16.3098C5.06095 16.3002 4.84769 16.2257 4.66882 16.0956C4.48994 15.9655 4.35339 15.7856 4.27623 15.5783C4.19907 15.371 4.18472 15.1455 4.23499 14.9301L5.18351 10.814L2.01171 8.04233C1.84395 7.89764 1.72264 7.70664 1.663 7.49329C1.60336 7.27993 1.60803 7.05372 1.67644 6.84301C1.74485 6.6323 1.87395 6.44648 2.04754 6.30885C2.22113 6.17122 2.4315 6.08791 2.65226 6.06936L6.83304 5.70725L8.46499 1.81475C8.55021 1.6105 8.69396 1.43604 8.87814 1.31332C9.06231 1.1906 9.27868 1.12512 9.49999 1.12512C9.72131 1.12512 9.93767 1.1906 10.1218 1.31332C10.306 1.43604 10.4498 1.6105 10.535 1.81475L12.1719 5.70725L16.3512 6.06936C16.572 6.08791 16.7824 6.17122 16.956 6.30885C17.1296 6.44648 17.2587 6.6323 17.3271 6.84301C17.3955 7.05372 17.4001 7.27993 17.3405 7.49329C17.2809 7.70664 17.1595 7.89764 16.9918 8.04233H16.9883Z" fill="#787E87"/>
</svg>
