<svg width="16" height="17" viewBox="0 0 16 17" fill="none" xmlns="http://www.w3.org/2000/svg">
<path opacity="0.4" d="M10.7935 1.83331H5.20683C2.78016 1.83331 1.3335 3.27998 1.3335 5.70665V11.2866C1.3335 13.72 2.78016 15.1666 5.20683 15.1666H10.7868C13.2135 15.1666 14.6602 13.72 14.6602 11.2933V5.70665C14.6668 3.27998 13.2202 1.83331 10.7935 1.83331Z" fill="#3A35FB"/>
<path d="M11.1653 5.16669H7.94533C7.67199 5.16669 7.44533 5.39335 7.44533 5.66669C7.44533 5.94002 7.67199 6.16669 7.94533 6.16669H9.95866L4.81199 11.3134C4.61866 11.5067 4.61866 11.8267 4.81199 12.02C4.91199 12.12 5.03866 12.1667 5.16533 12.1667C5.29199 12.1667 5.41866 12.12 5.51866 12.02L10.6653 6.87335V8.88669C10.6653 9.16002 10.892 9.38669 11.1653 9.38669C11.4387 9.38669 11.6653 9.16002 11.6653 8.88669V5.66669C11.6653 5.39335 11.4387 5.16669 11.1653 5.16669Z" fill="#3A35FB"/>
</svg>
