<svg width="14" height="15" viewBox="0 0 14 15" fill="none" xmlns="http://www.w3.org/2000/svg">
<path d="M12.431 4.51242L9.98758 2.06844C9.90633 1.98717 9.80986 1.9227 9.70369 1.87871C9.59751 1.83473 9.48372 1.81209 9.36879 1.81209C9.25387 1.81209 9.14007 1.83473 9.0339 1.87871C8.92773 1.9227 8.83126 1.98717 8.75 2.06844L2.00649 8.8125C1.92488 8.89346 1.86019 8.98983 1.81615 9.09601C1.77212 9.20219 1.74964 9.31607 1.75 9.43102V11.875C1.75 12.1071 1.84219 12.3296 2.00629 12.4937C2.17038 12.6578 2.39294 12.75 2.625 12.75H5.06899C5.18394 12.7504 5.29781 12.7279 5.404 12.6839C5.51018 12.6398 5.60655 12.5751 5.6875 12.4935L12.431 5.75C12.5123 5.66875 12.5768 5.57228 12.6207 5.46611C12.6647 5.35994 12.6874 5.24614 12.6874 5.13121C12.6874 5.01629 12.6647 4.90249 12.6207 4.79632C12.5768 4.69015 12.5123 4.59368 12.431 4.51242ZM10.5 6.44344L8.05602 4L9.36852 2.6875L11.8125 5.13094L10.5 6.44344Z" fill="#787E87"/>
</svg>
