<svg width="18" height="19" viewBox="0 0 18 19" fill="none" xmlns="http://www.w3.org/2000/svg">
<path d="M15.7275 6.5H13.5225C12.57 6.5 12 5.93 12 4.9775V2.7725C12 1.82 12.57 1.25 13.5225 1.25H15.7275C16.68 1.25 17.25 1.82 17.25 2.7725V4.9775C17.25 5.93 16.68 6.5 15.7275 6.5ZM15.8925 4.0175C15.8025 3.9275 15.6825 3.8825 15.5625 3.8825C15.4425 3.8825 15.3225 3.9275 15.2325 4.0175L15.0975 4.1525V2.4725C15.0975 2.21 14.8875 2 14.625 2C14.3625 2 14.1525 2.21 14.1525 2.4725V4.1525L14.0175 4.0175C13.8375 3.8375 13.5375 3.8375 13.3575 4.0175C13.1775 4.1975 13.1775 4.4975 13.3575 4.6775L14.295 5.615C14.3325 5.6525 14.385 5.6825 14.4375 5.705C14.4525 5.7125 14.4675 5.7125 14.4825 5.72C14.52 5.735 14.5575 5.7425 14.6025 5.7425C14.6175 5.7425 14.6325 5.7425 14.6475 5.7425C14.7 5.7425 14.745 5.735 14.7975 5.7125C14.805 5.7125 14.805 5.7125 14.8125 5.7125C14.865 5.69 14.91 5.66 14.9475 5.6225C14.955 5.615 14.955 5.615 14.9625 5.615L15.9 4.6775C16.08 4.4975 16.08 4.1975 15.8925 4.0175Z" fill="white"/>
<path opacity="0.4" d="M16.5 6.32749V7.24999H1.5V6.15499C1.5 4.43749 2.895 3.04999 4.6125 3.04999H12V4.97749C12 5.92999 12.57 6.49999 13.5225 6.49999H15.7275C16.0275 6.49999 16.2825 6.44749 16.5 6.32749Z" fill="white"/>
<path d="M1.5 7.25V12.845C1.5 14.5625 2.895 15.95 4.6125 15.95H13.3875C15.105 15.95 16.5 14.5625 16.5 12.845V7.25H1.5ZM6 13.4375H4.5C4.1925 13.4375 3.9375 13.1825 3.9375 12.875C3.9375 12.5675 4.1925 12.3125 4.5 12.3125H6C6.3075 12.3125 6.5625 12.5675 6.5625 12.875C6.5625 13.1825 6.3075 13.4375 6 13.4375ZM10.875 13.4375H7.875C7.5675 13.4375 7.3125 13.1825 7.3125 12.875C7.3125 12.5675 7.5675 12.3125 7.875 12.3125H10.875C11.1825 12.3125 11.4375 12.5675 11.4375 12.875C11.4375 13.1825 11.1825 13.4375 10.875 13.4375Z" fill="white"/>
</svg>
