<svg width="20" height="20" viewBox="0 0 20 20" fill="none" xmlns="http://www.w3.org/2000/svg">
<path opacity="0.4" d="M15.425 1.5C15.0083 1.5 14.675 1.83333 14.675 2.25V6.125C14.675 6.54167 15.0083 6.875 15.425 6.875C15.8417 6.875 16.175 6.54167 16.175 6.125V2.25C16.175 1.83333 15.8417 1.5 15.425 1.5Z" fill="#535357"/>
<path d="M10 13.125C9.58333 13.125 9.25 13.4583 9.25 13.875V17.75C9.25 18.1667 9.58333 18.5 10 18.5C10.4167 18.5 10.75 18.1667 10.75 17.75V13.875C10.75 13.4667 10.4167 13.125 10 13.125Z" fill="#535357"/>
<path opacity="0.4" d="M4.575 1.5C4.15833 1.5 3.825 1.83333 3.825 2.25V6.125C3.825 6.54167 4.15833 6.875 4.575 6.875C4.99167 6.875 5.325 6.54167 5.325 6.125V2.25C5.325 1.83333 4.98333 1.5 4.575 1.5Z" fill="#535357"/>
<path opacity="0.4" d="M6.125 8.47501H3.025C2.60833 8.47501 2.275 8.80834 2.275 9.22501C2.275 9.64167 2.60833 9.97501 3.025 9.97501H3.825V17.75C3.825 18.1667 4.15833 18.5 4.575 18.5C4.99167 18.5 5.325 18.1667 5.325 17.75V9.97501H6.125C6.54167 9.97501 6.875 9.64167 6.875 9.22501C6.875 8.80834 6.53333 8.47501 6.125 8.47501Z" fill="#535357"/>
<path opacity="0.4" d="M16.975 8.47501H13.875C13.4583 8.47501 13.125 8.80834 13.125 9.22501C13.125 9.64167 13.4583 9.97501 13.875 9.97501H14.675V17.75C14.675 18.1667 15.0083 18.5 15.425 18.5C15.8417 18.5 16.175 18.1667 16.175 17.75V9.97501H16.975C17.3917 9.97501 17.725 9.64167 17.725 9.22501C17.725 8.80834 17.3917 8.47501 16.975 8.47501Z" fill="#535357"/>
<path d="M11.55 10.025H10.75V2.25C10.75 1.83333 10.4167 1.5 10 1.5C9.58333 1.5 9.25 1.83333 9.25 2.25V10.025H8.45C8.03333 10.025 7.7 10.3583 7.7 10.775C7.7 11.1917 8.03333 11.525 8.45 11.525H11.55C11.9667 11.525 12.3 11.1917 12.3 10.775C12.3 10.3583 11.9667 10.025 11.55 10.025Z" fill="#535357"/>
</svg>
