<svg width="18" height="18" viewBox="0 0 18 18" fill="none" xmlns="http://www.w3.org/2000/svg">
<path d="M15.6192 4.1393C15.5664 4.07611 15.5004 4.02529 15.4258 3.99042C15.3512 3.95555 15.2698 3.93749 15.1875 3.9375H3.84469L3.50086 2.04891C3.45377 1.78969 3.31719 1.55522 3.11494 1.38638C2.91269 1.21754 2.6576 1.12504 2.39414 1.125H1.125C0.975816 1.125 0.832742 1.18426 0.727252 1.28975C0.621763 1.39524 0.5625 1.53832 0.5625 1.6875C0.5625 1.83668 0.621763 1.97976 0.727252 2.08525C0.832742 2.19074 0.975816 2.25 1.125 2.25H2.39062L4.18781 12.1141C4.24075 12.4067 4.37004 12.68 4.56258 12.9066C4.29683 13.1548 4.10502 13.4717 4.00842 13.8223C3.91181 14.1729 3.91419 14.5434 4.01529 14.8927C4.11638 15.242 4.31225 15.5565 4.58116 15.8012C4.85007 16.046 5.18153 16.2115 5.53877 16.2794C5.89601 16.3474 6.26508 16.315 6.60505 16.186C6.94502 16.0569 7.24261 15.8362 7.46483 15.5484C7.68704 15.2605 7.82519 14.9168 7.86395 14.5552C7.90272 14.1937 7.84059 13.8284 7.68445 13.5H10.878C10.7522 13.7635 10.6871 14.0518 10.6875 14.3438C10.6875 14.7331 10.803 15.1138 11.0193 15.4375C11.2356 15.7613 11.5431 16.0136 11.9028 16.1626C12.2626 16.3116 12.6584 16.3506 13.0403 16.2747C13.4222 16.1987 13.773 16.0112 14.0484 15.7359C14.3237 15.4605 14.5112 15.1097 14.5872 14.7278C14.6631 14.3459 14.6241 13.9501 14.4751 13.5903C14.3261 13.2306 14.0738 12.9231 13.75 12.7068C13.4263 12.4905 13.0456 12.375 12.6562 12.375H5.84789C5.71616 12.375 5.58861 12.3287 5.48749 12.2443C5.38637 12.1599 5.31808 12.0427 5.29453 11.913L5.07164 10.6875H13.2279C13.6231 10.6874 14.0057 10.5487 14.3091 10.2954C14.6125 10.0422 14.8173 9.69047 14.888 9.30164L15.743 4.60055C15.7574 4.51929 15.7539 4.43585 15.7325 4.35614C15.7111 4.27642 15.6724 4.20239 15.6192 4.1393ZM12.6562 13.5C12.8231 13.5 12.9863 13.5495 13.125 13.6422C13.2638 13.7349 13.3719 13.8667 13.4358 14.0209C13.4996 14.175 13.5163 14.3447 13.4838 14.5084C13.4512 14.672 13.3709 14.8224 13.2529 14.9404C13.1349 15.0584 12.9845 15.1387 12.8209 15.1713C12.6572 15.2038 12.4875 15.1871 12.3334 15.1233C12.1792 15.0594 12.0474 14.9513 11.9547 14.8125C11.862 14.6738 11.8125 14.5106 11.8125 14.3438C11.8125 14.12 11.9014 13.9054 12.0596 13.7471C12.2179 13.5889 12.4325 13.5 12.6562 13.5ZM5.90625 13.5C6.07313 13.5 6.23626 13.5495 6.37501 13.6422C6.51377 13.7349 6.62191 13.8667 6.68577 14.0209C6.74963 14.175 6.76634 14.3447 6.73379 14.5084C6.70123 14.672 6.62087 14.8224 6.50287 14.9404C6.38487 15.0584 6.23453 15.1387 6.07086 15.1713C5.90719 15.2038 5.73754 15.1871 5.58336 15.1233C5.42919 15.0594 5.29741 14.9513 5.2047 14.8125C5.11198 14.6738 5.0625 14.5106 5.0625 14.3438C5.0625 14.12 5.15139 13.9054 5.30963 13.7471C5.46786 13.5889 5.68247 13.5 5.90625 13.5Z" fill="#787E87"/>
</svg>
