<svg width="19" height="18" viewBox="0 0 19 18" fill="none" xmlns="http://www.w3.org/2000/svg">
<path d="M16.1192 4.1393C16.0664 4.07611 16.0004 4.02529 15.9258 3.99042C15.8512 3.95555 15.7698 3.93749 15.6875 3.9375H4.34469L4.00086 2.04891C3.95377 1.78969 3.81719 1.55522 3.61494 1.38638C3.41269 1.21754 3.1576 1.12504 2.89414 1.125H1.625C1.47582 1.125 1.33274 1.18426 1.22725 1.28975C1.12176 1.39524 1.0625 1.53832 1.0625 1.6875C1.0625 1.83668 1.12176 1.97976 1.22725 2.08525C1.33274 2.19074 1.47582 2.25 1.625 2.25H2.89062L4.68781 12.1141C4.74075 12.4067 4.87004 12.68 5.06258 12.9066C4.79683 13.1548 4.60502 13.4717 4.50842 13.8223C4.41181 14.1729 4.41419 14.5434 4.51529 14.8927C4.61638 15.242 4.81225 15.5565 5.08116 15.8012C5.35007 16.046 5.68153 16.2115 6.03877 16.2794C6.39601 16.3474 6.76508 16.315 7.10505 16.186C7.44502 16.0569 7.74261 15.8362 7.96483 15.5484C8.18704 15.2605 8.32519 14.9168 8.36395 14.5552C8.40272 14.1937 8.34059 13.8284 8.18445 13.5H11.378C11.2522 13.7635 11.1871 14.0518 11.1875 14.3438C11.1875 14.7331 11.303 15.1138 11.5193 15.4375C11.7356 15.7613 12.0431 16.0136 12.4028 16.1626C12.7626 16.3116 13.1584 16.3506 13.5403 16.2747C13.9222 16.1987 14.273 16.0112 14.5484 15.7359C14.8237 15.4605 15.0112 15.1097 15.0872 14.7278C15.1631 14.3459 15.1241 13.9501 14.9751 13.5903C14.8261 13.2306 14.5738 12.9231 14.25 12.7068C13.9263 12.4905 13.5456 12.375 13.1562 12.375H6.34789C6.21616 12.375 6.08861 12.3287 5.98749 12.2443C5.88637 12.1599 5.81808 12.0427 5.79453 11.913L5.57164 10.6875H13.7279C14.1231 10.6874 14.5057 10.5487 14.8091 10.2954C15.1125 10.0422 15.3173 9.69047 15.388 9.30164L16.243 4.60055C16.2574 4.51929 16.2539 4.43585 16.2325 4.35614C16.2111 4.27642 16.1724 4.20239 16.1192 4.1393ZM13.1562 13.5C13.3231 13.5 13.4863 13.5495 13.625 13.6422C13.7638 13.7349 13.8719 13.8667 13.9358 14.0209C13.9996 14.175 14.0163 14.3447 13.9838 14.5084C13.9512 14.672 13.8709 14.8224 13.7529 14.9404C13.6349 15.0584 13.4845 15.1387 13.3209 15.1713C13.1572 15.2038 12.9875 15.1871 12.8334 15.1233C12.6792 15.0594 12.5474 14.9513 12.4547 14.8125C12.362 14.6738 12.3125 14.5106 12.3125 14.3438C12.3125 14.12 12.4014 13.9054 12.5596 13.7471C12.7179 13.5889 12.9325 13.5 13.1562 13.5ZM6.40625 13.5C6.57313 13.5 6.73626 13.5495 6.87501 13.6422C7.01377 13.7349 7.12191 13.8667 7.18577 14.0209C7.24963 14.175 7.26634 14.3447 7.23379 14.5084C7.20123 14.672 7.12087 14.8224 7.00287 14.9404C6.88487 15.0584 6.73453 15.1387 6.57086 15.1713C6.40719 15.2038 6.23754 15.1871 6.08336 15.1233C5.92919 15.0594 5.79741 14.9513 5.7047 14.8125C5.61198 14.6738 5.5625 14.5106 5.5625 14.3438C5.5625 14.12 5.65139 13.9054 5.80963 13.7471C5.96786 13.5889 6.18247 13.5 6.40625 13.5Z" fill="white"/>
</svg>
