<svg width="18" height="18" viewBox="0 0 18 18" fill="none" xmlns="http://www.w3.org/2000/svg">
<path d="M8.98705 1.5C5.04023 1.5 1.80703 4.53795 1.5 8.3984L5.5268 10.0604C5.87841 9.81967 6.296 9.69092 6.72363 9.69144C6.76359 9.69144 6.80309 9.69254 6.84199 9.69469L8.63297 7.10316V7.06688C8.63297 5.5075 9.90387 4.23852 11.4662 4.23852C13.0284 4.23852 14.2993 5.5075 14.2993 7.06688C14.2993 8.6262 13.0284 9.8957 11.4662 9.8957C11.4445 9.8957 11.4234 9.89518 11.4018 9.89466L8.84754 11.7134C8.84918 11.7471 8.85023 11.7808 8.85023 11.8139C8.85023 12.985 7.89615 13.9375 6.72363 13.9375C5.69438 13.9375 4.83322 13.2038 4.63863 12.2327L1.7584 11.0438C2.65037 14.192 5.54783 16.5 8.98705 16.5C13.1365 16.5 16.5 13.1417 16.5 9C16.5 4.85779 13.1365 1.5 8.98705 1.5ZM6.20812 12.88L5.28533 12.4993C5.44863 12.8393 5.73187 13.1238 6.10758 13.28C6.91951 13.618 7.85578 13.2335 8.19422 12.4222C8.35807 12.0322 8.35904 11.5938 8.19691 11.203C8.03473 10.8094 7.72822 10.5025 7.33523 10.3388C6.94441 10.1768 6.526 10.1827 6.15838 10.3212L7.11199 10.7148C7.71094 10.964 7.99418 11.6506 7.74445 12.2485C7.49525 12.8463 6.80707 13.1292 6.20812 12.88ZM13.354 7.06688C13.354 6.02789 12.507 5.18192 11.4663 5.18192C10.4252 5.18192 9.57809 6.02789 9.57809 7.06688C9.57809 8.10592 10.4252 8.95137 11.4663 8.95137C12.507 8.95137 13.354 8.10592 13.354 7.06688ZM10.0511 7.06369C10.0511 6.28189 10.6863 5.64823 11.4691 5.64823C12.2524 5.64823 12.8875 6.28189 12.8875 7.06369C12.8875 7.84549 12.2524 8.4792 11.469 8.4792C10.6863 8.4792 10.0511 7.84549 10.0511 7.06375L10.0511 7.06369Z" fill="white"/>
</svg>
