<svg width="48" height="48" viewBox="0 0 48 48" fill="none" xmlns="http://www.w3.org/2000/svg">
<path fill-rule="evenodd" clip-rule="evenodd" d="M21.1387 0.747761C22.916 -0.249254 25.0845 -0.249254 26.8618 0.747761L28.4907 1.66183C29.3433 2.14005 30.3024 2.39674 31.2798 2.4089L33.1482 2.43233C35.186 2.45757 37.0638 3.54179 38.1045 5.29391L39.0589 6.90012C39.5581 7.74043 40.2598 8.4422 41.1001 8.94138L42.7063 9.89573C44.4585 10.9365 45.5427 12.8143 45.5679 14.852L45.5914 16.7197C45.6035 17.6971 45.8602 18.6562 46.3384 19.5088L47.2525 21.1384C48.2495 22.9158 48.2495 25.0842 47.2525 26.8616L46.3384 28.4905C45.8602 29.343 45.6035 30.3021 45.5914 31.2796L45.5679 33.148C45.5427 35.1857 44.4585 37.0635 42.7063 38.1043L41.1001 39.0586C40.2598 39.5578 39.5581 40.2596 39.0589 41.0999L38.1045 42.7061C37.0638 44.4582 35.186 45.5424 33.1482 45.5677L31.2798 45.5911C30.3024 45.6033 29.3433 45.86 28.4907 46.3382L26.8618 47.2522C25.0845 48.2493 22.916 48.2493 21.1387 47.2522L19.509 46.3382C18.6565 45.86 17.6974 45.6032 16.72 45.5911L14.8523 45.5677C12.8145 45.5424 10.9367 44.4582 9.89597 42.7061L8.94162 41.0999C8.44244 40.2596 7.74067 39.5578 6.90036 39.0586L5.29416 38.1043C3.54204 37.0635 2.45782 35.1857 2.43258 33.148L2.40914 31.2796C2.39699 30.3021 2.14029 29.343 1.66207 28.4905L0.748006 26.8616C-0.24901 25.0842 -0.24901 22.9158 0.748006 21.1384L1.66207 19.5088C2.14025 18.6562 2.39704 17.6971 2.40914 16.7197L2.43258 14.852C2.45782 12.8143 3.54204 10.9365 5.29416 9.89573L6.90036 8.94138C7.74067 8.4422 8.44244 7.74042 8.94162 6.90012L9.89597 5.29391C10.9367 3.54179 12.8145 2.45757 14.8523 2.43233L16.72 2.4089C17.6974 2.39679 18.6565 2.14 19.509 1.66183L21.1387 0.747761ZM23.998 15.75C23.7454 15.75 23.4986 15.8246 23.2883 15.9639C23.078 16.1033 22.9132 16.3017 22.8159 16.5337L20.9526 20.9553L16.1772 21.3662C15.9252 21.3873 15.6848 21.4824 15.4866 21.6387C15.2885 21.795 15.1413 22.0059 15.0632 22.2451C14.9851 22.4845 14.9797 22.7418 15.0478 22.9841C15.116 23.2262 15.2542 23.4432 15.4455 23.6074L19.0681 26.7561L17.9849 31.4319C17.9275 31.6765 17.9444 31.9326 18.0325 32.168C18.1206 32.4034 18.2765 32.6076 18.4807 32.7554C18.685 32.9032 18.9285 32.9877 19.1809 32.9986C19.4332 33.0094 19.6831 32.9465 19.8994 32.8169L23.9951 30.3406L28.0996 32.8169C28.3159 32.9464 28.5659 33.0094 28.8181 32.9986C29.0705 32.9877 29.3141 32.9032 29.5183 32.7554C29.7225 32.6076 29.8784 32.4034 29.9666 32.168C30.0547 31.9326 30.0708 31.6765 30.0134 31.4319L28.9287 26.751L32.5506 23.6074H32.5542C32.7457 23.4431 32.8845 23.2264 32.9527 22.9841C33.0208 22.7418 33.0154 22.4845 32.9373 22.2451C32.8592 22.0059 32.712 21.795 32.5139 21.6387C32.3158 21.4824 32.0753 21.3873 31.8233 21.3662L27.0501 20.9553L25.1802 16.5337C25.0829 16.3017 24.9188 16.1032 24.7085 15.9639C24.4982 15.8245 24.2508 15.75 23.998 15.75Z" fill="#363745"/>
</svg>
