<svg width="38" height="38" viewBox="0 0 38 38" fill="none" xmlns="http://www.w3.org/2000/svg">
<rect width="38" height="38" rx="4" fill="#363747"/>
<path d="M24.625 15.625H16.75V13.9375C16.75 13.3408 16.9871 12.7685 17.409 12.3465C17.831 11.9246 18.4033 11.6875 19 11.6875C20.0807 11.6875 21.0531 12.4609 21.2613 13.4868C21.2921 13.6318 21.379 13.7587 21.503 13.8399C21.6269 13.9212 21.7779 13.9503 21.9232 13.9208C22.0685 13.8913 22.1962 13.8057 22.2787 13.6826C22.3612 13.5595 22.3918 13.4087 22.3637 13.2632C22.0459 11.698 20.6313 10.5625 19 10.5625C18.1052 10.5634 17.2473 10.9193 16.6145 11.552C15.9818 12.1848 15.6259 13.0427 15.625 13.9375V15.625H13.375C13.0766 15.625 12.7905 15.7435 12.5795 15.9545C12.3685 16.1655 12.25 16.4516 12.25 16.75V24.625C12.25 24.9234 12.3685 25.2095 12.5795 25.4205C12.7905 25.6315 13.0766 25.75 13.375 25.75H24.625C24.9234 25.75 25.2095 25.6315 25.4205 25.4205C25.6315 25.2095 25.75 24.9234 25.75 24.625V16.75C25.75 16.4516 25.6315 16.1655 25.4205 15.9545C25.2095 15.7435 24.9234 15.625 24.625 15.625ZM19 21.5312C18.8331 21.5312 18.67 21.4818 18.5312 21.3891C18.3925 21.2963 18.2843 21.1646 18.2205 21.0104C18.1566 20.8562 18.1399 20.6866 18.1725 20.5229C18.205 20.3592 18.2854 20.2089 18.4034 20.0909C18.5214 19.9729 18.6717 19.8925 18.8354 19.86C18.9991 19.8274 19.1687 19.8441 19.3229 19.908C19.4771 19.9718 19.6088 20.08 19.7016 20.2187C19.7943 20.3575 19.8438 20.5206 19.8438 20.6875C19.8438 20.9113 19.7549 21.1259 19.5966 21.2841C19.4384 21.4424 19.2238 21.5312 19 21.5312Z" fill="#646576"/>
</svg>
