<svg width="108" height="19" viewBox="0 0 108 19" fill="none" xmlns="http://www.w3.org/2000/svg">
<path d="M4.368 18.048C3.36 18.048 2.536 17.576 1.896 16.632C1.256 15.688 0.936 14.392 0.936 12.744C0.936 11.24 1.144 9.76 1.56 8.304C1.976 6.832 2.56 5.512 3.312 4.344C4.064 3.176 4.952 2.24 5.976 1.536C7.016 0.816 8.16 0.456 9.408 0.456C10.192 0.456 10.864 0.76 11.424 1.368C11.984 1.976 12.264 2.792 12.264 3.816V4.104C12.264 4.168 12.264 4.224 12.264 4.272C12.264 4.32 12.256 4.376 12.24 4.44L9.096 5.28C8.904 4.88 8.68 4.68 8.424 4.68C8.04 4.68 7.632 4.992 7.2 5.616C6.784 6.24 6.384 6.984 6 7.848C5.744 8.424 5.512 9.016 5.304 9.624C5.112 10.232 4.96 10.8 4.848 11.328C4.736 11.856 4.68 12.288 4.68 12.624C4.68 13.12 4.752 13.48 4.896 13.704C5.008 13.912 5.184 14.016 5.424 14.016C5.664 14.016 5.928 13.904 6.216 13.68C6.504 13.44 6.768 13.144 7.008 12.792C7.264 12.44 7.432 12.088 7.512 11.736L10.248 12.84C9.464 14.632 8.528 15.952 7.44 16.8C6.368 17.632 5.344 18.048 4.368 18.048ZM14.0415 18.048C13.4015 18.048 12.7615 17.88 12.1215 17.544C11.4815 17.192 10.8655 16.64 10.2735 15.888L12.0495 12.408C12.2255 12.712 12.4815 13 12.8175 13.272C13.1695 13.544 13.5375 13.76 13.9215 13.92C14.3055 14.08 14.6335 14.16 14.9055 14.16C15.3215 14.16 15.7135 14.032 16.0815 13.776C16.4655 13.52 16.6575 13.176 16.6575 12.744C16.6575 12.184 16.4015 11.672 15.8895 11.208C15.3775 10.744 14.8015 10.288 14.1615 9.84C13.5375 9.392 12.9615 8.888 12.4335 8.328C11.9215 7.752 11.6655 7.096 11.6655 6.36C11.6655 5.528 11.9055 4.76 12.3855 4.056C12.8655 3.336 13.4895 2.712 14.2575 2.184C15.0255 1.64 15.8415 1.224 16.7055 0.935999C17.5855 0.631999 18.4175 0.48 19.2015 0.48C19.7615 0.48 20.2815 0.575999 20.7615 0.767999C21.2415 0.943999 21.6255 1.24 21.9135 1.656C22.2015 2.072 22.3455 2.632 22.3455 3.336C22.3455 3.448 22.3375 3.56 22.3215 3.672C22.3215 3.784 22.3135 3.896 22.2975 4.008C22.2815 4.12 22.2575 4.24 22.2255 4.368C22.2095 4.48 22.1935 4.6 22.1775 4.728L18.6975 5.736C18.7295 5.608 18.7535 5.48 18.7695 5.352C18.8015 5.224 18.8175 5.096 18.8175 4.968C18.8175 4.488 18.7295 4.144 18.5535 3.936C18.3935 3.712 18.1775 3.6 17.9055 3.6C17.7615 3.6 17.5535 3.68 17.2815 3.84C17.0095 3.984 16.7615 4.192 16.5375 4.464C16.3295 4.72 16.2255 5.008 16.2255 5.328C16.2255 5.856 16.4415 6.296 16.8735 6.648C17.3215 6.984 17.8335 7.328 18.4095 7.68C18.6815 7.84 18.9855 8.096 19.3215 8.448C19.6575 8.784 19.9455 9.248 20.1855 9.84C20.4415 10.416 20.5695 11.16 20.5695 12.072C20.5695 13.256 20.2735 14.296 19.6815 15.192C19.1055 16.088 18.3215 16.792 17.3295 17.304C16.3375 17.8 15.2415 18.048 14.0415 18.048ZM24.354 18.048C23.714 18.048 23.074 17.88 22.434 17.544C21.794 17.192 21.178 16.64 20.586 15.888L22.362 12.408C22.538 12.712 22.794 13 23.13 13.272C23.482 13.544 23.85 13.76 24.234 13.92C24.618 14.08 24.946 14.16 25.218 14.16C25.634 14.16 26.026 14.032 26.394 13.776C26.778 13.52 26.97 13.176 26.97 12.744C26.97 12.184 26.714 11.672 26.202 11.208C25.69 10.744 25.114 10.288 24.474 9.84C23.85 9.392 23.274 8.888 22.746 8.328C22.234 7.752 21.978 7.096 21.978 6.36C21.978 5.528 22.218 4.76 22.698 4.056C23.178 3.336 23.802 2.712 24.57 2.184C25.338 1.64 26.154 1.224 27.018 0.935999C27.898 0.631999 28.73 0.48 29.514 0.48C30.074 0.48 30.594 0.575999 31.074 0.767999C31.554 0.943999 31.938 1.24 32.226 1.656C32.514 2.072 32.658 2.632 32.658 3.336C32.658 3.448 32.65 3.56 32.634 3.672C32.634 3.784 32.626 3.896 32.61 4.008C32.594 4.12 32.57 4.24 32.538 4.368C32.522 4.48 32.506 4.6 32.49 4.728L29.01 5.736C29.042 5.608 29.066 5.48 29.082 5.352C29.114 5.224 29.13 5.096 29.13 4.968C29.13 4.488 29.042 4.144 28.866 3.936C28.706 3.712 28.49 3.6 28.218 3.6C28.074 3.6 27.866 3.68 27.594 3.84C27.322 3.984 27.074 4.192 26.85 4.464C26.642 4.72 26.538 5.008 26.538 5.328C26.538 5.856 26.754 6.296 27.186 6.648C27.634 6.984 28.146 7.328 28.722 7.68C28.994 7.84 29.298 8.096 29.634 8.448C29.97 8.784 30.258 9.248 30.498 9.84C30.754 10.416 30.882 11.16 30.882 12.072C30.882 13.256 30.586 14.296 29.994 15.192C29.418 16.088 28.634 16.792 27.642 17.304C26.65 17.8 25.554 18.048 24.354 18.048ZM30.7305 18.024C30.9705 16.904 31.2025 15.8 31.4265 14.712C31.6505 13.624 31.8665 12.552 32.0745 11.496C32.4105 9.592 32.7385 7.712 33.0585 5.856C33.3785 3.984 33.6105 2.2 33.7545 0.503999L35.0025 0.576C35.2265 0.592 35.4425 0.607999 35.6505 0.623999C35.8745 0.639999 36.0905 0.655999 36.2985 0.671999C36.5385 0.687999 36.7785 0.704 37.0185 0.719999C37.2585 0.719999 37.4985 0.719999 37.7385 0.719999C37.7065 0.848 37.6505 1.104 37.5705 1.488C37.5065 1.872 37.4345 2.264 37.3545 2.664C37.2905 3.048 37.2425 3.312 37.2105 3.456L36.7785 5.832L36.9225 5.808C37.3865 5.088 37.9225 4.256 38.5305 3.312C39.1385 2.368 39.7065 1.464 40.2345 0.599999C41.0345 0.535999 41.8345 0.463999 42.6345 0.383999C43.4345 0.303999 44.2345 0.199999 45.0345 0.0719991C44.6665 0.567999 44.2985 1.064 43.9305 1.56C43.5625 2.056 43.2025 2.552 42.8505 3.048C42.4825 3.56 42.0825 4.12 41.6505 4.728C41.2185 5.336 40.8025 5.936 40.4025 6.528C40.0185 7.104 39.6985 7.6 39.4425 8.016C39.6185 8.816 39.8105 9.608 40.0185 10.392C40.2265 11.176 40.4505 11.944 40.6905 12.696C40.9305 13.448 41.1705 14.208 41.4105 14.976C41.6505 15.744 41.8985 16.52 42.1545 17.304C41.7865 17.288 41.4105 17.28 41.0265 17.28C40.6425 17.264 40.2665 17.256 39.8985 17.256C39.4345 17.256 38.9865 17.264 38.5545 17.28C38.1225 17.28 37.6745 17.288 37.2105 17.304C37.1465 16.792 37.0745 16.264 36.9945 15.72C36.9145 15.16 36.8345 14.592 36.7545 14.016C36.6745 13.456 36.5945 12.904 36.5145 12.36C36.4345 11.8 36.3545 11.264 36.2745 10.752L35.8425 11.256C35.7305 11.72 35.6105 12.312 35.4825 13.032C35.4185 13.384 35.3465 13.736 35.2665 14.088C35.2025 14.424 35.1385 14.752 35.0745 15.072C35.0105 15.456 34.9385 15.848 34.8585 16.248C34.7785 16.632 34.6985 17.032 34.6185 17.448L30.7305 18.024ZM41.7684 17.976C41.9924 17.048 42.2164 16 42.4404 14.832C42.6644 13.648 42.8884 12.424 43.1124 11.16C43.3364 9.896 43.5444 8.68 43.7364 7.512C43.9124 6.488 44.0804 5.448 44.2404 4.392C44.4164 3.336 44.5844 2.272 44.7444 1.2L48.4884 0.599999L47.4084 6.912C47.1684 8.4 46.9524 9.736 46.7604 10.92C46.5844 12.104 46.4084 13.224 46.2324 14.28C46.0724 15.336 45.9044 16.416 45.7284 17.52C45.4244 17.52 45.0564 17.544 44.6244 17.592C44.1924 17.624 43.7604 17.672 43.3284 17.736C42.8964 17.784 42.5284 17.832 42.2244 17.88C41.9364 17.928 41.7844 17.96 41.7684 17.976ZM46.62 18.12C47.1 15.816 47.556 13.584 47.988 11.424C48.34 9.392 48.684 7.44 49.02 5.568C49.356 3.696 49.596 1.976 49.74 0.407999C49.852 0.423999 49.948 0.431999 50.028 0.431999C50.124 0.431999 50.204 0.431999 50.268 0.431999H50.772C51.188 0.431999 51.652 0.423999 52.164 0.407999C52.676 0.375999 53.148 0.351999 53.58 0.335999C53.692 0.895999 53.796 1.448 53.892 1.992C54.004 2.536 54.1 3.064 54.18 3.576C54.26 4.024 54.348 4.488 54.444 4.968C54.54 5.432 54.636 5.904 54.732 6.384C54.812 6.864 54.892 7.312 54.972 7.728C55.068 8.128 55.148 8.496 55.212 8.832C55.404 7.888 55.58 6.96 55.74 6.048C55.916 5.136 56.084 4.312 56.244 3.576L56.94 0.36L59.868 -1.43051e-06C59.596 1.216 59.34 2.408 59.1 3.576C58.86 4.744 58.636 5.872 58.428 6.96C58.028 8.912 57.676 10.752 57.372 12.48C57.068 14.208 56.836 15.712 56.676 16.992C56.852 16.992 56.82 17.016 56.58 17.064C56.356 17.096 56.02 17.152 55.572 17.232C55.124 17.296 54.644 17.384 54.132 17.496C53.62 17.608 53.164 17.744 52.764 17.904C52.716 17.264 52.668 16.64 52.62 16.032C52.572 15.424 52.516 14.832 52.452 14.256C52.356 13.232 52.244 12.216 52.116 11.208C51.988 10.2 51.86 9.4 51.732 8.808C51.62 9.512 51.484 10.32 51.324 11.232C51.164 12.128 50.988 13.032 50.796 13.944L50.124 17.304L46.62 18.12Z" fill="white"/>
<path d="M61.4556 18.048C60.8156 18.048 60.1756 17.88 59.5356 17.544C58.8956 17.192 58.2796 16.64 57.6876 15.888L59.4636 12.408C59.6396 12.712 59.8956 13 60.2316 13.272C60.5836 13.544 60.9516 13.76 61.3356 13.92C61.7196 14.08 62.0476 14.16 62.3196 14.16C62.7356 14.16 63.1276 14.032 63.4956 13.776C63.8796 13.52 64.0716 13.176 64.0716 12.744C64.0716 12.184 63.8156 11.672 63.3036 11.208C62.7916 10.744 62.2156 10.288 61.5756 9.84C60.9516 9.392 60.3756 8.888 59.8476 8.328C59.3356 7.752 59.0796 7.096 59.0796 6.36C59.0796 5.528 59.3196 4.76 59.7996 4.056C60.2796 3.336 60.9036 2.712 61.6716 2.184C62.4396 1.64 63.2556 1.224 64.1196 0.935999C64.9996 0.631999 65.8316 0.48 66.6156 0.48C67.1756 0.48 67.6956 0.575999 68.1756 0.767999C68.6556 0.943999 69.0396 1.24 69.3276 1.656C69.6156 2.072 69.7596 2.632 69.7596 3.336C69.7596 3.448 69.7516 3.56 69.7356 3.672C69.7356 3.784 69.7276 3.896 69.7116 4.008C69.6956 4.12 69.6716 4.24 69.6396 4.368C69.6236 4.48 69.6076 4.6 69.5916 4.728L66.1116 5.736C66.1436 5.608 66.1676 5.48 66.1836 5.352C66.2156 5.224 66.2316 5.096 66.2316 4.968C66.2316 4.488 66.1436 4.144 65.9676 3.936C65.8076 3.712 65.5916 3.6 65.3196 3.6C65.1756 3.6 64.9676 3.68 64.6956 3.84C64.4236 3.984 64.1756 4.192 63.9516 4.464C63.7436 4.72 63.6396 5.008 63.6396 5.328C63.6396 5.856 63.8556 6.296 64.2876 6.648C64.7356 6.984 65.2476 7.328 65.8236 7.68C66.0956 7.84 66.3996 8.096 66.7356 8.448C67.0716 8.784 67.3596 9.248 67.5996 9.84C67.8556 10.416 67.9836 11.16 67.9836 12.072C67.9836 13.256 67.6876 14.296 67.0956 15.192C66.5196 16.088 65.7356 16.792 64.7436 17.304C63.7516 17.8 62.6556 18.048 61.4556 18.048ZM67.5921 18.024C68.0721 15.864 68.5281 13.752 68.9601 11.688C69.1361 10.856 69.3121 9.968 69.4881 9.024C69.6801 8.064 69.8721 7.096 70.0641 6.12C70.2561 5.144 70.4321 4.224 70.5921 3.36C70.7521 2.48 70.8801 1.712 70.9761 1.056C71.6161 0.863999 72.3041 0.687999 73.0401 0.527999C73.7921 0.367999 74.4641 0.287999 75.0561 0.287999C76.0161 0.287999 76.7761 0.495999 77.3361 0.912C77.8961 1.312 78.2961 1.856 78.5361 2.544C78.7761 3.232 78.8961 3.984 78.8961 4.8C78.8961 5.696 78.7281 6.56 78.3921 7.392C78.0721 8.208 77.6321 8.944 77.0721 9.6C76.5281 10.256 75.8961 10.776 75.1761 11.16C74.4721 11.544 73.7361 11.736 72.9681 11.736H72.7041C72.5761 12.28 72.4561 12.872 72.3441 13.512C72.2321 14.152 72.1361 14.744 72.0561 15.288C71.9921 15.608 71.9361 15.928 71.8881 16.248C71.8401 16.568 71.7921 16.888 71.7441 17.208L67.5921 18.024ZM73.1841 9.216C73.5521 9.12 73.9201 8.88 74.2881 8.496C74.6561 8.096 74.9601 7.592 75.2001 6.984C75.4401 6.376 75.5601 5.712 75.5601 4.992C75.5601 4.4 75.4241 3.952 75.1521 3.648C74.8961 3.344 74.6081 3.192 74.2881 3.192C74.1121 4.248 73.9361 5.248 73.7601 6.192C73.5841 7.136 73.3921 8.144 73.1841 9.216ZM82.9738 17.952C83.0058 17.68 83.0378 17.416 83.0698 17.16C83.1018 16.904 83.1338 16.648 83.1658 16.392L83.3098 15.048C83.3258 14.824 83.3418 14.616 83.3578 14.424C83.3738 14.232 83.3898 14.056 83.4058 13.896H81.3178L80.3578 17.352C80.0058 17.4 79.5898 17.456 79.1098 17.52C78.6298 17.568 78.1818 17.616 77.7658 17.664C77.5098 17.696 77.2538 17.728 76.9978 17.76C76.7578 17.792 76.5098 17.824 76.2538 17.856L78.1498 11.568C78.3738 10.816 78.6298 9.96 78.9178 9C79.2058 8.04 79.4938 7.056 79.7818 6.048C80.0858 5.04 80.3658 4.096 80.6218 3.216C80.8938 2.32 81.1098 1.568 81.2698 0.959999C82.3578 0.879999 83.4618 0.783999 84.5818 0.671999C85.7178 0.559999 86.8218 0.407999 87.8938 0.215999C87.8138 1.112 87.7338 2.128 87.6538 3.264C87.5898 4.384 87.5258 5.544 87.4618 6.744C87.4138 7.944 87.3578 9.128 87.2938 10.296C87.2618 11.4 87.2218 12.544 87.1738 13.728C87.1258 14.896 87.0778 16.096 87.0298 17.328C86.7898 17.36 86.5498 17.392 86.3098 17.424C86.0698 17.456 85.8298 17.488 85.5898 17.52C85.1898 17.584 84.7498 17.656 84.2698 17.736C83.7898 17.816 83.3578 17.888 82.9738 17.952ZM81.8938 11.496C81.9898 11.496 82.1658 11.488 82.4218 11.472C82.6938 11.456 82.9498 11.44 83.1898 11.424C83.4298 11.408 83.5738 11.4 83.6218 11.4C83.6218 11.192 83.6538 10.768 83.7178 10.128C83.7818 9.488 83.8458 8.816 83.9098 8.112C83.9418 7.696 83.9738 7.272 84.0058 6.84C84.0538 6.392 84.1018 5.936 84.1498 5.472L84.2938 3.384L83.9338 3.408L83.3818 5.472L81.8938 11.496ZM91.5086 18.048C90.5006 18.048 89.6766 17.576 89.0366 16.632C88.3966 15.688 88.0766 14.392 88.0766 12.744C88.0766 11.24 88.2846 9.76 88.7006 8.304C89.1166 6.832 89.7006 5.512 90.4526 4.344C91.2046 3.176 92.0926 2.24 93.1166 1.536C94.1566 0.816 95.3006 0.456 96.5486 0.456C97.3326 0.456 98.0046 0.76 98.5646 1.368C99.1246 1.976 99.4046 2.792 99.4046 3.816V4.104C99.4046 4.168 99.4046 4.224 99.4046 4.272C99.4046 4.32 99.3966 4.376 99.3806 4.44L96.2366 5.28C96.0446 4.88 95.8206 4.68 95.5646 4.68C95.1806 4.68 94.7726 4.992 94.3406 5.616C93.9246 6.24 93.5246 6.984 93.1406 7.848C92.8846 8.424 92.6526 9.016 92.4446 9.624C92.2526 10.232 92.1006 10.8 91.9886 11.328C91.8766 11.856 91.8206 12.288 91.8206 12.624C91.8206 13.12 91.8926 13.48 92.0366 13.704C92.1486 13.912 92.3246 14.016 92.5646 14.016C92.8046 14.016 93.0686 13.904 93.3566 13.68C93.6446 13.44 93.9086 13.144 94.1486 12.792C94.4046 12.44 94.5726 12.088 94.6526 11.736L97.3886 12.84C96.6046 14.632 95.6686 15.952 94.5806 16.8C93.5086 17.632 92.4846 18.048 91.5086 18.048ZM97.2701 18.024L100.414 0.959999L107.998 0.311999C107.886 0.663999 107.79 1.024 107.71 1.392C107.63 1.696 107.55 2.016 107.47 2.352C107.406 2.672 107.35 2.96 107.302 3.216C107.094 3.232 106.798 3.248 106.414 3.264C106.03 3.264 105.638 3.272 105.238 3.288C104.838 3.288 104.494 3.288 104.206 3.288C103.918 3.288 103.766 3.288 103.75 3.288L102.91 7.584L104.302 7.512C104.478 7.496 104.654 7.488 104.83 7.488C105.022 7.488 105.206 7.488 105.382 7.488C105.558 7.488 105.718 7.488 105.862 7.488C106.006 7.488 106.118 7.48 106.198 7.464C106.166 7.688 106.134 7.912 106.102 8.136C106.086 8.344 106.062 8.56 106.03 8.784L105.814 10.104C105.734 10.12 105.63 10.128 105.502 10.128C105.374 10.128 105.222 10.128 105.046 10.128C104.87 10.144 104.686 10.152 104.494 10.152C104.302 10.152 104.118 10.16 103.942 10.176C103.734 10.192 103.518 10.2 103.294 10.2C103.07 10.2 102.83 10.208 102.574 10.224L101.758 14.64L105.262 14.088L105.022 16.824L97.2701 18.024Z" fill="#3A35FB"/>
</svg>
